<svg xmlns="http://www.w3.org/2000/svg" width="1553" height="1600" viewBox="0 0 1553 1600" version="1.1"><path d="" stroke="none" fill="#080404" fill-rule="evenodd"/><path d="M 442 1.971 C 427.723 5.046, 408.871 12.530, 399.868 18.697 C 395.570 21.642, 384.192 32.577, 373.327 44.206 C 354.970 63.853, 348.071 81.933, 348.020 110.526 C 347.983 131.270, 351.052 146.020, 359.521 165.788 C 388.433 233.278, 462.072 284.711, 535.475 288.684 L 547.450 289.332 540.676 291.617 C 531.946 294.561, 526.345 298.747, 514.581 311.120 C 499.469 327.013, 494.996 338.873, 496.333 359.500 C 497.860 383.050, 509.498 406.704, 529.053 426 C 540.262 437.061, 551.934 444.729, 565.331 449.831 C 573.392 452.902, 575.898 453.379, 586.070 453.779 C 599.313 454.299, 610.715 452.075, 618.891 447.376 C 624.587 444.102, 641.719 426.920, 646.405 419.781 C 652.727 410.150, 654.431 403.351, 654.368 388 C 654.320 376.305, 653.953 373.310, 651.617 365.600 C 645.696 346.049, 638.032 333.410, 622.828 318.121 C 611.392 306.620, 602.469 300.278, 590.805 295.358 C 583.693 292.359, 579.820 291.209, 567.500 288.438 C 564.933 287.860, 566.074 287.347, 575.414 284.879 C 589.063 281.273, 599.472 276.808, 609.054 270.447 C 618.037 264.484, 640.119 242.824, 645.702 234.500 C 667.745 201.635, 668.510 160.932, 647.907 117.165 C 638.418 97.008, 627.287 81.192, 610.605 64.164 C 577.179 30.042, 535.559 8.160, 491.441 1.510 C 477.410 -0.605, 452.900 -0.376, 442 1.971 M 1303 36.965 C 1280.603 41.772, 1267.021 49.626, 1248.486 68.488 C 1227.695 89.646, 1217.721 109.235, 1213.349 137.500 C 1211.483 149.561, 1212.022 175.858, 1214.407 189.092 C 1218.313 210.770, 1227.992 236.950, 1239.252 256.292 C 1269.677 308.557, 1314.680 343.146, 1363.276 351.617 C 1377.028 354.014, 1398.528 353.090, 1410.288 349.597 C 1426.390 344.814, 1434.967 339.572, 1451.633 324.324 C 1472.433 305.295, 1483.306 287.377, 1489.455 261.994 C 1491.788 252.363, 1491.998 249.665, 1491.999 229.192 C 1492 203.064, 1490.796 195.379, 1483.015 171.879 C 1472.460 140.001, 1456.106 112.705, 1433.366 89.014 C 1403.955 58.372, 1368.575 39.481, 1334.144 36.036 C 1319.966 34.618, 1312.965 34.826, 1303 36.965 M 216.587 63.140 C 202.720 64.919, 180.928 73.735, 165.862 83.660 C 148.949 94.803, 119.681 124.643, 107.351 143.314 C 96.274 160.089, 86.376 183.794, 81.937 204.174 C 78.943 217.924, 78.260 239.895, 80.425 252.840 C 84.163 275.196, 92.437 291.685, 106.618 305.038 C 113.974 311.965, 116.825 313.964, 125.710 318.423 C 150.436 330.832, 185.827 327.912, 215.337 311.028 C 226.428 304.682, 238.519 295.282, 251.113 283.213 C 290.392 245.575, 309.640 206.741, 311.651 161.078 C 313.142 127.219, 304.779 103.312, 284.583 83.701 C 267.033 66.658, 243.837 59.644, 216.587 63.140 M 1029.500 64.141 C 1002.724 65.733, 973.396 79.916, 947.973 103.567 C 919.637 129.929, 904.863 152.118, 899.414 176.500 C 897.074 186.970, 897.051 205.966, 899.367 215 C 903.996 233.054, 916.955 248.549, 934.500 257.007 C 946.223 262.659, 952.611 264.104, 968.500 264.700 C 983.877 265.278, 993.392 264.008, 1008.374 259.378 C 1020.343 255.680, 1041.233 244.976, 1051.396 237.336 C 1061.656 229.622, 1086.512 205.312, 1093.149 196.500 C 1103.395 182.896, 1111.409 166.417, 1114.584 152.425 C 1117.110 141.289, 1117.149 119.728, 1114.658 111.500 C 1109.172 93.382, 1093.523 76.638, 1074.897 68.958 C 1063.269 64.163, 1051.014 62.862, 1029.500 64.141 M 242.753 105.955 C 239.153 108.680, 234.638 112.842, 232.719 115.205 C 221.070 129.543, 208.332 154.343, 191.987 194.500 C 175.408 235.232, 158.776 266.966, 146.862 280.594 C 140.490 287.883, 140.154 288.606, 144.500 285.678 C 160.397 274.969, 173.074 254.295, 195.504 202.500 C 220.878 143.907, 229.946 126.533, 245.221 107.250 C 247.944 103.813, 249.976 101, 249.735 101 C 249.495 101, 246.353 103.230, 242.753 105.955 M 1076.437 117.108 C 1072.205 121.587, 1058.862 131.865, 1049 138.243 C 1044.325 141.266, 1026.100 151.157, 1008.500 160.223 C 955.760 187.389, 945.079 194.692, 937.063 209.067 L 934.626 213.438 937.691 210.969 C 939.377 209.611, 943.174 206.419, 946.128 203.876 C 956.660 194.811, 972.784 185.043, 1007 167 C 1054.584 141.907, 1071.874 130.007, 1077.896 118.205 C 1079.075 115.892, 1079.891 114, 1079.707 114 C 1079.524 114, 1078.052 115.399, 1076.437 117.108 M 497.083 140.385 C 498.101 141.323, 516 149.968, 516 149.520 C 516 148.965, 498.441 140, 497.353 140 C 496.976 140, 496.854 140.173, 497.083 140.385 M 349.500 213.389 C 342.726 215.218, 337.424 217.618, 332.023 221.300 C 318.546 230.486, 300.302 250.003, 294.165 261.801 C 282.371 284.470, 281.522 308.671, 291.950 324.921 C 295.655 330.696, 299.857 334.115, 307.765 337.789 C 312.644 340.056, 314.844 340.452, 322.500 340.446 C 339.338 340.433, 348.647 335.441, 368.832 315.603 C 383.869 300.824, 388.478 294.570, 393.028 282.772 C 405.172 251.281, 397.173 222.577, 374 214.493 C 367.686 212.291, 355.587 211.745, 349.500 213.389 M 1134.500 244.457 C 1121.547 246.819, 1111.563 250.041, 1100.480 255.438 C 1086.288 262.348, 1079.734 267.356, 1065.667 282.039 C 1056.385 291.726, 1053.322 295.705, 1049.611 302.891 C 1043.649 314.433, 1041.646 322.943, 1042.288 334 C 1044.932 379.517, 1101.451 412.393, 1161.683 403.450 C 1180.926 400.593, 1197.204 394.643, 1211.345 385.300 C 1215.280 382.699, 1224.848 374.242, 1232.607 366.505 C 1244.689 354.458, 1247.229 351.366, 1250.305 344.969 C 1255.172 334.848, 1257.002 327.199, 1256.988 317.040 C 1256.966 300.777, 1251.457 287.842, 1238.909 274.586 C 1223.538 258.347, 1204.098 248.758, 1178 244.543 C 1166.616 242.704, 1144.356 242.660, 1134.500 244.457 M 763.410 261.412 C 754.635 263.425, 743.032 268.494, 734.605 273.995 C 725.980 279.625, 709.670 295.007, 699.621 306.987 C 666.180 346.855, 655.950 413, 674.580 468.902 C 682.504 492.680, 693.007 509.893, 709.144 525.546 C 721.177 537.219, 726.110 540.795, 737.327 545.978 C 759.696 556.314, 783.922 555.998, 806.446 545.076 C 817.380 539.774, 825.301 533.506, 839.557 518.875 C 854.324 503.718, 860.392 495.769, 866.966 482.970 C 894.545 429.281, 890.949 356.754, 858.271 307.561 C 843.152 284.800, 820.652 267.472, 799.742 262.484 C 790.528 260.286, 770.848 259.706, 763.410 261.412 M 445.302 307.944 C 441.436 308.889, 434.788 314.332, 425.306 324.315 C 416.994 333.065, 414.087 339.522, 413.275 351.038 C 412.659 359.766, 413.965 366.936, 417.550 374.515 C 420.646 381.059, 427.858 389.284, 432.006 391.002 C 437.705 393.363, 434.379 393.010, 426.919 390.462 C 416.422 386.878, 397.318 383.225, 385 382.447 C 358.364 380.764, 330.317 388.992, 311.734 403.940 C 301.482 412.188, 283.157 431.473, 277.768 439.685 C 259.955 466.835, 255.391 506.505, 265.478 546.500 C 284.396 621.503, 349.333 687.553, 421 704.688 C 429.474 706.714, 435.009 707.299, 449.688 707.720 C 475.764 708.468, 489.607 705.951, 506.500 697.390 C 518.701 691.207, 531.994 680.344, 544.152 666.621 C 557.721 651.305, 565.088 637.285, 570.486 616.500 C 572.836 607.454, 573.085 604.688, 573.102 587.500 C 573.121 567.932, 572.232 559.059, 568.934 545.890 C 558.127 502.732, 531.827 461.270, 495.410 429.978 C 479.165 416.019, 460.663 404.494, 439.012 394.850 L 435.524 393.296 441.124 393.760 C 448.735 394.392, 452.326 392.507, 462.393 382.596 C 477.128 368.088, 480.563 360.393, 479.823 343.545 C 479.493 336.013, 478.903 333.383, 476.299 327.820 C 469.469 313.235, 456.823 305.126, 445.302 307.944 M 923.063 310.982 C 915.287 314.739, 899.932 329.593, 895.201 337.935 C 886.688 352.944, 888.985 378.583, 900.626 398.500 C 906.135 407.925, 918.721 420.871, 927.221 425.855 C 939.464 433.033, 944.432 434.500, 956.500 434.500 C 966.833 434.500, 967.833 434.318, 973 431.500 C 981.028 427.121, 997.868 410.016, 1001.551 402.500 C 1004.173 397.150, 1004.531 395.270, 1004.857 385.153 C 1005.607 361.834, 999.175 346.047, 981.658 328.213 C 967.846 314.151, 957.018 308.974, 940 308.292 C 929.885 307.887, 929.264 307.986, 923.063 310.982 M 235.500 349.960 C 222.223 352.832, 211.528 359.367, 197.896 372.938 C 182.302 388.463, 176.991 398.452, 177.010 412.225 C 177.032 428.903, 188.069 439.721, 206.153 440.792 C 215.952 441.373, 222.202 439.907, 234 434.261 C 242.717 430.090, 244.538 428.672, 256.087 417.061 C 272.712 400.348, 275.348 395.382, 275.836 379.861 C 276.104 371.335, 275.826 368.436, 274.464 365.566 C 272.079 360.539, 264.273 353.838, 258.318 351.705 C 252.427 349.594, 241.169 348.733, 235.500 349.960 M 781 352.107 C 781 353.816, 778.778 371.253, 776.063 390.857 C 773.347 410.461, 770.885 432.350, 770.593 439.500 L 770.060 452.500 772.006 441 C 777.900 406.163, 781.183 380.568, 781.723 365.250 C 782.038 356.313, 782.004 349, 781.648 349 C 781.292 349, 781 350.398, 781 352.107 M 1328.243 363.059 C 1319.369 364.809, 1310.795 370.517, 1299.167 382.417 C 1281.019 400.990, 1276.038 410.488, 1275.264 428 C 1274.860 437.143, 1275.089 439.265, 1277.035 444.419 C 1283.052 460.353, 1297.821 467.287, 1314.776 462.137 C 1323.214 459.574, 1330.439 454.456, 1341.875 442.943 C 1358.316 426.392, 1363.865 415.715, 1364.747 398.935 C 1365.779 379.301, 1358.063 367.105, 1342.254 363.385 C 1335.856 361.880, 1334.394 361.846, 1328.243 363.059 M 72.763 377.033 C 65.110 378.321, 58.522 380.860, 52.313 384.914 C 39.166 393.496, 19.522 414.581, 13.010 427.098 C -3.611 459.045, -4.180 501.438, 11.563 534.852 C 17.391 547.220, 23.007 554.896, 33.491 564.819 C 49.980 580.428, 68.392 586.060, 87.897 581.463 C 103.705 577.736, 120.992 564.326, 136.622 543.665 C 145.696 531.670, 152.676 513.380, 155.087 495.281 C 156.526 484.476, 155.722 461.206, 153.573 451.500 C 144.861 412.147, 121.492 384.422, 91.303 377.621 C 83.591 375.884, 80.221 375.777, 72.763 377.033 M 1469 380.886 C 1456.827 384.821, 1448.014 391.055, 1433.849 405.750 C 1418.507 421.666, 1412.563 431.139, 1406.503 449.329 C 1392.498 491.369, 1402.138 539.706, 1429.534 564.810 C 1448.087 581.810, 1471.888 585.657, 1492.899 575.051 C 1504.223 569.335, 1521.806 553.232, 1532.812 538.500 C 1538.495 530.893, 1545.096 517.086, 1548.591 505.500 C 1551.112 497.141, 1551.337 494.889, 1551.758 473.883 C 1552.165 453.529, 1552.007 450.463, 1550.178 443.233 C 1545.268 423.815, 1537.054 408.882, 1524.455 396.471 C 1515.542 387.689, 1507.920 383.050, 1498.356 380.584 C 1490.110 378.458, 1476.062 378.602, 1469 380.886 M 1119 424.693 C 1098.955 428.062, 1081.120 438.538, 1063.345 457.383 C 1051.163 470.299, 1045.750 479.801, 1041.276 496.121 C 1038.841 505.003, 1038.839 527.710, 1041.271 537.761 C 1051.561 580.271, 1083.822 619.252, 1127 641.345 C 1152.352 654.317, 1173.952 659.981, 1198.119 659.994 C 1231.988 660.013, 1255.069 649.060, 1279.153 621.542 C 1291.608 607.312, 1297.083 595.109, 1299.094 577.098 C 1306.129 514.100, 1246.060 443.429, 1171.008 426.402 C 1161.724 424.296, 1158.229 424.033, 1141 424.145 C 1130.275 424.215, 1120.375 424.461, 1119 424.693 M 965.500 462.059 C 949.968 464.428, 932.595 472.322, 920.960 482.299 C 910.285 491.452, 891.011 511.620, 886.295 518.572 C 877.020 532.244, 870.686 548.972, 868.847 564.650 C 866.804 582.057, 871.247 599.177, 880.591 609.911 C 898.099 630.022, 927.178 633.403, 956.672 618.758 C 966.225 614.014, 975.292 606.760, 990.081 592.028 C 1004.818 577.348, 1010.614 569.857, 1016.798 557.500 C 1023.779 543.549, 1025.252 537.442, 1025.759 520.351 C 1026.441 497.380, 1023.702 488.722, 1012.018 476.911 C 1000.241 465.007, 982.763 459.427, 965.500 462.059 M 210.010 487.137 C 202.381 489.420, 187.164 503.868, 181.360 514.340 C 178.609 519.303, 178.500 520.017, 178.500 533 C 178.500 546.058, 178.603 546.717, 181.638 553.123 C 187.287 565.045, 195.008 571.503, 205.032 572.690 C 212.580 573.584, 218.836 570.016, 229.766 558.583 C 241.240 546.581, 243.297 542.418, 243.839 530.101 C 244.322 519.110, 242.953 511.872, 238.850 503.721 C 232.377 490.859, 220.465 484.009, 210.010 487.137 M 980.748 497.945 C 971.458 503.836, 963.994 513.497, 949.029 539 C 938.605 556.763, 925.189 576.384, 916.939 585.931 C 911.565 592.150, 910.539 593.772, 912.680 592.662 C 921.014 588.344, 930.785 575.749, 950.044 544.500 C 960.661 527.274, 970.122 513.788, 978.629 503.750 C 982.708 498.938, 985.899 495, 985.719 495 C 985.539 495, 983.302 496.325, 980.748 497.945 M 389.235 502.250 C 390.041 503.488, 396.456 513.725, 403.492 525 C 421.683 554.153, 430.118 567.349, 431.296 568.500 C 432.635 569.808, 430.730 566.597, 415.241 541.440 C 400.454 517.425, 389.136 500, 388.324 500 C 388.019 500, 388.429 501.012, 389.235 502.250 M 651.438 511.035 C 642.142 513.983, 633.783 520.032, 619.220 534.349 C 604.834 548.492, 600.575 554.090, 595.975 564.898 C 591.396 575.659, 589.932 582.539, 589.858 593.635 C 589.781 605.340, 591.610 613.060, 596.152 620.197 C 610.192 642.261, 637.759 643.447, 663.285 623.085 C 682.956 607.394, 697.461 587.074, 701.537 569.496 C 703.863 559.467, 703.640 543.260, 701.062 535 C 694.683 514.564, 673.131 504.155, 651.438 511.035 M 1354.748 537.366 C 1344.963 541.016, 1326.974 559.133, 1320.618 571.740 C 1315.233 582.421, 1314.866 598.248, 1319.780 607.862 C 1321.983 612.172, 1329.635 617.653, 1334.802 618.623 C 1340.286 619.651, 1348.706 617.479, 1354.726 613.481 C 1361.213 609.174, 1374.481 596.068, 1378.993 589.511 C 1384.034 582.183, 1386.955 572.846, 1386.973 564 C 1386.998 551.966, 1384.435 545.852, 1376.783 539.695 C 1373.570 537.110, 1372.078 536.654, 1365.783 536.335 C 1361.132 536.100, 1357.144 536.472, 1354.748 537.366 M 138.500 571.925 C 116.222 575.547, 101.234 583.898, 80.933 604 C 58.461 626.252, 49.126 642.927, 42.928 671.884 C 40.290 684.213, 39.272 710.694, 40.903 724.564 C 47.866 783.783, 80.955 841.394, 128.231 876.616 C 151.829 894.197, 178.225 905.085, 204.709 908.164 C 227.555 910.820, 252.109 904.698, 272.308 891.310 C 280.165 886.102, 298.880 867.903, 306.316 858.239 C 315.849 845.850, 323.035 829.619, 327.673 810 C 330.774 796.883, 331.940 769.623, 330.055 754.324 C 319.340 667.346, 254.472 588.909, 180.500 573.484 C 171.504 571.608, 146.222 570.670, 138.500 571.925 M 759.230 587.550 C 750.690 589.849, 748.055 591.667, 736.878 602.966 C 728.333 611.604, 725.498 615.237, 722.378 621.550 L 718.500 629.396 718.540 643.448 C 718.576 655.991, 718.869 658.359, 721.271 665.500 C 730.418 692.698, 754.207 716.532, 779.500 723.839 C 793.830 727.978, 807.425 727.451, 817.949 722.348 C 825.754 718.564, 844.720 699.539, 848.204 692 C 852.209 683.334, 853.341 676.837, 852.715 666.095 C 850.993 636.545, 829.580 606.150, 800.883 592.521 C 787.868 586.341, 771.138 584.344, 759.230 587.550 M 1390.827 619.170 C 1367.144 620.908, 1340.593 634.701, 1317.092 657.476 C 1283.177 690.342, 1266.854 716.870, 1257.225 754.772 C 1254.642 764.940, 1254.501 766.700, 1254.529 788.500 C 1254.555 809.312, 1254.776 812.309, 1256.856 820 C 1261.500 837.169, 1270.202 852.168, 1282.165 863.621 C 1299.524 880.241, 1318.341 886.445, 1343.982 884.002 C 1356.486 882.810, 1363.748 880.957, 1375.118 876.055 C 1394.989 867.488, 1407.595 858.425, 1428.028 838.014 C 1457.080 808.994, 1473.352 779.546, 1481.084 742 C 1489.948 698.956, 1477.289 655.680, 1449.674 634.626 C 1431.947 621.110, 1417.194 617.235, 1390.827 619.170 M 997.618 642.045 C 989.662 644.050, 982.224 649.080, 972.735 658.872 C 967.603 664.167, 962.414 670.554, 961.203 673.065 C 954.465 687.032, 956.906 706.474, 967.378 722.251 C 975.119 733.912, 991.529 747.868, 1003.567 753.029 C 1015.200 758.015, 1033.356 759.568, 1043.792 756.469 C 1053.129 753.696, 1072.145 736.426, 1077.236 726.096 C 1079.244 722.019, 1079.496 720.031, 1079.463 708.500 C 1079.429 696.770, 1079.170 694.896, 1076.809 689.314 C 1068.487 669.641, 1049.182 651.961, 1028.554 645.120 C 1017.778 641.547, 1004.738 640.251, 997.618 642.045 M 1140.407 677.132 C 1133.193 678.384, 1129.330 680.664, 1121.093 688.534 C 1107.499 701.521, 1104.773 707.139, 1104.877 721.947 C 1104.990 738.033, 1109.742 749.307, 1121.818 762.144 C 1135.817 777.026, 1153.352 782.364, 1166.500 775.747 C 1172.770 772.592, 1188.188 756.506, 1191.493 749.673 C 1196.946 738.395, 1195.596 722.802, 1187.846 707.544 C 1177.656 687.481, 1157.018 674.250, 1140.407 677.132 M 1410.813 686.742 C 1402.799 698.765, 1386.785 720.247, 1371.488 739.493 C 1349.663 766.953, 1336.568 785.979, 1328.595 801.812 C 1324.370 810.201, 1318.742 824.076, 1319.327 824.661 C 1319.551 824.885, 1322.579 820.890, 1326.055 815.784 C 1334.879 802.820, 1341.250 794.486, 1366.402 763 C 1389.782 733.732, 1400.177 718.866, 1407.990 703.520 C 1412.686 694.296, 1418.665 678.332, 1417.761 677.428 C 1417.517 677.183, 1414.390 681.374, 1410.813 686.742 M 596.500 695.601 C 572.226 701.406, 557.927 710.030, 537.336 731.286 C 528.063 740.858, 525.486 744.231, 521.855 751.552 L 517.500 760.334 517.177 773.434 C 516.784 789.361, 518.310 794.471, 526.536 804.766 C 539.493 820.982, 557.273 829.774, 581.824 832.105 C 611.628 834.935, 637.251 828.140, 659.075 811.621 C 669.206 803.952, 683.800 788.924, 689.139 780.664 C 702.707 759.671, 700.353 733.841, 683.304 716.646 C 672.938 706.191, 654.684 697.170, 639.678 695.086 C 628.625 693.552, 603.835 693.847, 596.500 695.601 M 153.733 699.750 C 172.931 724.562, 181.205 735, 181.676 735 C 181.987 735, 180.692 733.087, 178.799 730.750 C 176.906 728.413, 170.062 719.638, 163.589 711.250 C 157.116 702.862, 151.598 696, 151.326 696 C 151.054 696, 152.138 697.688, 153.733 699.750 M 401.925 731.363 C 392.673 734.630, 386.306 738.294, 377.132 745.634 C 358.257 760.736, 344.604 779.384, 339.949 796.419 C 337.128 806.746, 337.533 821.558, 340.872 830.147 C 343.336 836.488, 349.470 844.009, 355.048 847.530 C 364.976 853.797, 382.383 854.771, 394.779 849.752 C 406.618 844.958, 412.174 840.825, 428.053 825 C 441.432 811.667, 444.180 808.382, 447.710 801.500 C 458.795 779.891, 459.525 758.754, 449.682 744.369 C 440.500 730.949, 419.386 725.199, 401.925 731.363 M 835 742.363 C 823.661 745.668, 817.208 750.261, 804.157 764.317 C 795.897 773.214, 793.577 778.393, 794.296 786.327 C 795.615 800.875, 810.513 810.171, 830.097 808.669 C 838.584 808.018, 847.465 805.094, 853.539 800.950 C 859.190 797.095, 875.273 780.051, 877.309 775.760 C 879.435 771.282, 879.573 760.009, 877.551 756.099 C 875.465 752.064, 869.432 747.087, 863.133 744.203 C 856.524 741.178, 842.269 740.245, 835 742.363 M 418.883 758.757 C 414.699 761.543, 411.872 765.445, 399.468 785.549 C 386.786 806.106, 383.023 811.639, 376.117 819.891 C 373.248 823.318, 372.380 824.867, 373.734 824.142 C 376.773 822.516, 381.627 816.264, 390.537 802.500 C 407.592 776.153, 413.045 768.258, 417.994 762.750 C 423.269 756.878, 423.542 755.653, 418.883 758.757 M 994.907 774.056 C 982.499 775.904, 974.181 780.743, 961.820 793.305 C 948.897 806.438, 941.687 818.889, 938.960 832.784 C 936.983 842.857, 938.247 865.316, 941.449 877 C 946.589 895.755, 957.829 914.994, 971.356 928.190 C 988.120 944.542, 1004.292 950.979, 1025.323 949.670 C 1036.272 948.988, 1043.448 945.851, 1053.459 937.369 C 1068.524 924.605, 1077.543 911.694, 1081.658 897 C 1084.382 887.275, 1084.164 860.415, 1081.276 849.969 C 1075.587 829.390, 1067.001 813.520, 1054.192 799.906 C 1036.429 781.027, 1013.940 771.221, 994.907 774.056 M 1207 804.211 C 1203.153 805.063, 1200.944 806.762, 1191.773 815.925 C 1178.271 829.416, 1176.745 832.471, 1176.190 847.128 C 1175.634 861.807, 1178.681 872.011, 1186.166 880.536 C 1193.601 889.004, 1206.666 891.730, 1215.369 886.630 C 1221.136 883.250, 1234.793 868.679, 1238.360 862.100 C 1241.718 855.907, 1242.938 846.322, 1241.745 835.500 C 1240.153 821.046, 1230.702 807.771, 1219.672 804.495 C 1214.035 802.821, 1213.345 802.806, 1207 804.211 M 810 825.429 C 787.074 830.248, 770.384 839.978, 748.126 861.500 C 717.854 890.771, 704.495 911.388, 692.543 947.281 C 683.838 973.424, 682.783 980.375, 682.245 1015.152 C 681.749 1047.168, 682.339 1054.865, 686.560 1071.500 C 697.113 1113.089, 716.940 1145.512, 744 1165.434 C 752.570 1171.744, 765.860 1178.350, 776.723 1181.700 C 784.922 1184.228, 786.719 1184.406, 804 1184.406 C 821.321 1184.406, 823.074 1184.231, 831.500 1181.662 C 843.903 1177.879, 859.120 1170.287, 868.032 1163.436 C 886.225 1149.449, 904.891 1130.027, 916.810 1112.682 C 929.900 1093.633, 941.713 1065.527, 947.358 1040 C 951.634 1020.667, 952.504 1011.840, 952.434 988.500 C 952.359 963.505, 950.381 948.463, 944.480 928 C 929.459 875.913, 897.245 839.464, 855.008 826.764 C 846.439 824.187, 819.684 823.394, 810 825.429 M 655 829.343 C 646.636 832.304, 641.729 835.456, 633.403 843.218 C 605.409 869.312, 597.141 899.344, 612.835 917.927 C 618.797 924.987, 624.669 928.175, 632.731 928.731 C 645.052 929.581, 657.257 923.032, 673.017 907.113 C 689.734 890.228, 695.351 878.801, 695.439 861.500 C 695.502 849.002, 693.851 844.033, 687.274 836.929 C 678.258 827.191, 667.934 824.764, 655 829.343 M 465.856 836.251 C 457.155 839.302, 452.302 842.704, 441.966 853 C 425.915 868.987, 420.234 881.180, 419.256 901.739 C 418.051 927.100, 426.740 952.626, 443.133 971.876 C 450.327 980.324, 462.368 990.617, 469.036 994.018 C 477.240 998.204, 487.899 1001.071, 495.401 1001.110 C 509.547 1001.184, 518.970 996.768, 532.737 983.614 C 543.612 973.223, 551.076 962.606, 554.114 953.206 C 556.835 944.787, 557.836 923.481, 556.035 912.315 C 552.731 891.836, 541.233 870.220, 525.725 855.331 C 511.337 841.519, 497.785 835.085, 481.500 834.336 C 473.943 833.988, 471.435 834.296, 465.856 836.251 M 312.746 896.086 C 293.831 900.544, 269.111 926.739, 264.947 946.737 C 263.454 953.906, 264.248 971.221, 266.449 979.500 C 271.247 997.551, 281.069 1014.330, 294.883 1028.073 C 314.838 1047.926, 338.083 1057.277, 359.646 1054.126 C 370.781 1052.499, 378.251 1048.530, 388.583 1038.750 C 398.616 1029.252, 405.062 1020.617, 408.694 1011.808 C 411.072 1006.039, 411.299 1004.262, 411.349 991 C 411.414 973.845, 410.226 968.476, 402.996 953.257 C 390.995 927.998, 372.419 909.684, 349.522 900.541 C 337.613 895.785, 322.031 893.897, 312.746 896.086 M 835.565 904.500 C 834.021 916.473, 828.687 940.456, 816.993 988 C 801.709 1050.136, 798.953 1065.204, 797.696 1093.500 L 797.297 1102.500 798.625 1097 C 799.356 1093.975, 801.532 1084.300, 803.461 1075.500 C 805.390 1066.700, 810.832 1044.875, 815.555 1027 C 833.040 960.829, 835.997 945.954, 836.730 920.500 C 837.285 901.213, 836.817 894.784, 835.565 904.500 M 1175.500 915.485 C 1155.568 919.892, 1137.426 930.811, 1118.037 950.071 C 1088.846 979.068, 1075 1007.895, 1075 1039.673 C 1075 1059.831, 1080.484 1074.581, 1092.414 1086.510 C 1108.682 1102.778, 1129.968 1107.581, 1154.409 1100.498 C 1171.555 1095.529, 1185.111 1087.655, 1201.249 1073.288 C 1227.231 1050.159, 1245.319 1020.587, 1249.036 995.164 C 1250.878 982.567, 1249.878 961.052, 1247.077 953 C 1240.831 935.049, 1224.995 920.132, 1207.356 915.584 C 1199.904 913.663, 1183.967 913.614, 1175.500 915.485 M 1197.906 967.204 C 1194.382 971.178, 1179.987 985.920, 1165.916 999.965 C 1151.845 1014.009, 1137.624 1029.100, 1134.314 1033.500 C 1127.575 1042.457, 1121.319 1053, 1122.742 1053 C 1124.445 1053, 1181.490 995.675, 1189.732 985.681 C 1196.896 976.994, 1206.016 961.682, 1204.769 960.435 C 1204.517 960.184, 1201.429 963.229, 1197.906 967.204 M 608.249 962.058 C 597.686 964.141, 588.043 971.031, 570.971 988.693 C 559.582 1000.475, 558.597 1001.828, 552.961 1013.419 C 543.737 1032.392, 542.679 1037.395, 542.581 1062.500 L 542.500 1083.500 546.305 1094.500 C 554.123 1117.102, 565.038 1130.792, 581.500 1138.642 C 602.914 1148.853, 622.569 1143.808, 645.050 1122.330 C 666.968 1101.390, 677.495 1080.016, 679.894 1051.586 C 681.589 1031.493, 678.271 1013.081, 669.891 996.083 C 660.966 977.981, 645.741 964.985, 629.951 961.991 C 623.857 960.835, 614.298 960.864, 608.249 962.058 M 1015.287 986.801 C 1008.005 989.409, 1000.211 994.822, 990.819 1003.796 C 969.105 1024.540, 961.310 1040.099, 962.184 1060.947 C 962.509 1068.711, 963.101 1071.623, 965.344 1076.500 C 971.062 1088.929, 980.150 1094.974, 993.145 1094.990 C 1007.367 1095.008, 1016.621 1090.592, 1031.771 1076.555 C 1050.368 1059.326, 1059.965 1040.590, 1059.973 1021.500 C 1059.980 1005.848, 1053.676 993.924, 1042.505 988.458 C 1035.082 984.827, 1022.874 984.083, 1015.287 986.801 M 435.882 1067.317 C 433.893 1068.063, 430.671 1069.659, 428.722 1070.863 C 424.146 1073.691, 410.168 1089.353, 408.361 1093.677 C 404.567 1102.760, 405.941 1115.113, 412.181 1128 C 415.835 1135.546, 428.037 1148.467, 434.720 1151.864 C 444.961 1157.071, 457.985 1158.074, 465.500 1154.234 C 470.233 1151.815, 485.514 1135.635, 488.092 1130.313 C 492.686 1120.827, 490.342 1102.441, 483.099 1091.154 C 472.057 1073.947, 449.105 1062.360, 435.882 1067.317 M 997 1118.967 C 981.061 1122.391, 962.858 1130.322, 947.500 1140.533 C 932.472 1150.524, 899.436 1184.124, 888.538 1200.500 C 863.866 1237.576, 853.783 1273.049, 856.117 1314.561 C 858.531 1357.493, 882.941 1391.024, 920.500 1403 C 930.308 1406.127, 950.107 1406.868, 962.339 1404.566 C 992.500 1398.889, 1016.149 1384.899, 1046.064 1355.036 C 1063.026 1338.104, 1074.580 1323.481, 1082.630 1308.755 C 1107.465 1263.324, 1113.838 1219.308, 1101.327 1179.626 C 1091.191 1147.476, 1067.048 1124.987, 1035.792 1118.580 C 1025.438 1116.457, 1007.865 1116.633, 997 1118.967 M 541.992 1147.974 C 531.665 1149.307, 522.214 1153.403, 513 1160.537 C 504.606 1167.037, 487.742 1184.734, 483.157 1191.856 C 478.170 1199.599, 473.575 1211.229, 471.818 1220.553 C 469.812 1231.197, 470.099 1259.555, 472.319 1270 C 480.885 1310.315, 505.444 1347.771, 537.283 1369.079 C 569.505 1390.643, 602.057 1394.589, 629.361 1380.241 C 634.047 1377.778, 639.739 1373.279, 647.135 1366.192 C 664.621 1349.437, 672.596 1337.311, 677.186 1320.500 C 679.095 1313.508, 679.378 1309.854, 679.434 1291.500 C 679.494 1271.889, 679.320 1269.801, 676.814 1259.940 C 663.823 1208.827, 626.131 1165.572, 582 1151.133 C 570.750 1147.452, 555.411 1146.240, 541.992 1147.974 M 1032.024 1185.857 C 1023.169 1199.044, 1010.497 1215.707, 985.526 1247 C 946.157 1296.337, 938.393 1307.979, 928.593 1332.365 C 922.795 1346.793, 923.463 1347.097, 932.183 1334 C 942.856 1317.968, 949.581 1309.189, 968.536 1286.537 C 990.869 1259.847, 1009.523 1236.485, 1014.622 1228.816 C 1021.586 1218.342, 1032.574 1196.422, 1036.009 1186.151 C 1037.728 1181.009, 1038.992 1176.670, 1038.818 1176.508 C 1038.643 1176.346, 1035.586 1180.553, 1032.024 1185.857 M 757.286 1231.451 C 749.970 1233.737, 744.620 1237.599, 735.427 1247.227 C 725.152 1257.990, 721.574 1264.415, 719.920 1275.075 C 715.108 1306.089, 738.806 1343.494, 770.309 1354.609 C 782.296 1358.838, 793.716 1358.336, 803.495 1353.149 C 810.277 1349.552, 827.062 1332.817, 830.224 1326.500 C 838.295 1310.374, 836.784 1291.235, 825.724 1269.500 C 820.286 1258.813, 802.890 1241.136, 793 1236.248 C 780.912 1230.274, 767.022 1228.408, 757.286 1231.451 M 753.708 1386.418 C 743.191 1391.106, 738.667 1394.637, 723.912 1409.673 C 706.947 1426.961, 703.281 1432.608, 696.723 1451.553 C 691.098 1467.800, 689.551 1477.308, 689.570 1495.500 C 689.595 1518.807, 693.319 1534.807, 703.260 1554.327 C 709.435 1566.452, 715.025 1573.985, 724.050 1582.340 C 744.071 1600.877, 769.868 1605.019, 793.485 1593.489 C 806.256 1587.254, 829.515 1564.202, 838.014 1549.356 C 849.592 1529.134, 855.634 1498.733, 853.045 1473.740 C 849.452 1439.067, 833.749 1409.112, 810.667 1392.902 C 799.312 1384.928, 795.024 1383.705, 777 1383.296 L 761.500 1382.945 753.708 1386.418" stroke="none" fill="#040404" fill-rule="evenodd"/></svg>