<svg xmlns="http://www.w3.org/2000/svg" width="1600" height="1514" viewBox="0 0 1600 1514" version="1.1"><path d="" stroke="none" fill="#080404" fill-rule="evenodd"/><path d="M 533.500 1.352 C 518.596 6.280, 501.164 19.787, 495.625 30.700 C 488.955 43.839, 492.236 55.576, 512.217 90.052 C 536.220 131.469, 542 147.578, 542 173.060 C 542 187.705, 539.775 199.793, 532.346 225.500 C 522.280 260.332, 521.592 263.800, 521.631 279.500 C 521.672 295.792, 523.714 311.505, 528.519 332.500 C 535.944 364.948, 535.507 371.792, 525.282 383.110 C 520.017 388.938, 517.340 390, 507.923 390 C 500.778 390, 498.975 389.611, 493.624 386.914 C 480.401 380.251, 464.739 365.899, 450.068 347 C 422.157 311.045, 418.341 298.763, 402.998 195.500 C 391.455 117.809, 389.424 109.395, 378.221 92.856 C 371.088 82.325, 365.652 76.510, 357.760 70.968 C 348.115 64.194, 339.780 61.484, 328.826 61.560 C 320.841 61.616, 319.534 61.926, 312.373 65.466 C 300.484 71.341, 292.148 80.268, 284.327 95.500 C 280.938 102.100, 277.255 110.219, 276.142 113.543 C 273.433 121.632, 272.022 139.047, 272.014 164.500 C 272.002 200.645, 274.481 217.089, 283.578 241.202 C 302.227 290.637, 325.660 318.619, 370.180 344.620 C 387.762 354.888, 396.848 361.872, 411.003 376 C 435.146 400.095, 454.026 429.055, 462.942 455.667 C 471.246 480.453, 466.461 494.150, 445.904 504.441 C 441.075 506.858, 433.796 509.576, 429.728 510.481 C 422.616 512.064, 422.022 512.048, 414.299 510.076 C 391.778 504.326, 371.619 495.358, 339.468 476.786 C 307.781 458.482, 303.523 456.676, 289.321 455.505 C 269.153 453.843, 254.741 460.639, 248.167 474.911 C 246.001 479.614, 245.609 481.847, 245.695 489 C 245.853 502.269, 249.967 511.582, 260.807 523.209 C 270.418 533.518, 277.751 536.213, 301 537.975 C 334.895 540.546, 375.792 545.079, 383.500 547.120 C 392.887 549.606, 404.339 558.737, 407.453 566.218 C 409.402 570.903, 409.441 578.700, 407.537 583.257 C 402.869 594.429, 390.433 601.188, 349 615.072 C 317.316 625.688, 283.474 635.244, 262.669 639.447 C 240.877 643.850, 220.615 646.161, 170 650.018 C 97.982 655.506, 83.826 658.034, 60.456 669.580 C 40.509 679.436, 22.222 694.949, 11.875 710.793 C 2.325 725.414, 0.594 733.354, 0.601 762.500 C 0.606 783.669, 0.710 784.840, 3.365 793.500 C 9.301 812.864, 20.876 832.558, 33.938 845.515 C 50.858 862.300, 65.639 866.711, 101.754 865.752 C 117.422 865.335, 120.320 864.988, 126.500 862.783 C 136.904 859.071, 144.811 854.803, 153.719 848.091 C 166.362 838.564, 175.820 827.722, 203.955 790.500 C 236.783 747.071, 251.925 731.100, 267.632 723.337 C 274.307 720.038, 275.394 719.801, 282.261 720.148 C 288.038 720.440, 290.434 721.048, 293.090 722.894 C 307.047 732.601, 310.831 756.321, 302.279 780.500 C 294.910 801.335, 280.257 818.166, 257.500 831.933 C 247.521 837.970, 227.993 847.332, 202 858.540 C 157.567 877.700, 139.608 888.315, 122.206 905.703 C 112.197 915.705, 110.023 920.582, 110.010 933.068 C 109.998 944.144, 111.606 950.635, 116.662 959.930 C 124.051 973.513, 135.550 985.668, 145.750 990.677 C 150.950 993.230, 152.504 993.500, 162 993.500 C 171.781 993.500, 172.972 993.277, 179.393 990.235 C 197.694 981.569, 217.712 962.265, 249.117 923 C 261.580 907.418, 270.922 894.706, 286.301 872.404 C 297.426 856.270, 307.223 846.161, 315.326 842.451 C 326.625 837.278, 341.108 838.501, 351.720 845.526 C 361.934 852.286, 372.863 868.605, 376.455 882.460 C 379.132 892.786, 378.619 899.650, 372.580 934.311 C 369.360 952.798, 369.248 960.815, 372.128 966.765 C 377.160 977.158, 391.975 987.078, 407.687 990.574 C 414.387 992.064, 416.650 992.140, 424.241 991.130 C 435.379 989.647, 442.756 986.895, 446.698 982.752 C 450.156 979.119, 454.695 970.512, 458.537 960.306 C 463.574 946.923, 470.300 938.180, 478.500 934.353 C 486.839 930.461, 492.732 931.429, 499.250 937.762 C 502.288 940.714, 503 942.129, 503 945.210 C 503 956.063, 468.681 1075.496, 451.396 1124.796 C 428.640 1189.702, 405.554 1236.768, 347.168 1337.291 C 316.945 1389.326, 311.686 1399.400, 307.119 1414 C 299.260 1439.131, 301.148 1474.533, 311.432 1494.821 C 315.574 1502.994, 319.662 1507.033, 327.500 1510.696 C 333.112 1513.319, 334.276 1513.490, 345.500 1513.344 C 359.273 1513.165, 368.078 1511.215, 380.281 1505.640 C 404.156 1494.734, 420.064 1478.939, 431.467 1454.820 C 441.970 1432.602, 445.207 1416.873, 459.521 1318.500 C 472.005 1232.695, 478.929 1195.112, 491.022 1147.500 C 511.762 1065.843, 538.031 1001.644, 558.078 983.620 C 566.375 976.160, 571.928 976.371, 582.191 984.539 C 593.138 993.252, 602.518 1008.727, 605.709 1023.343 C 606.783 1028.260, 607.263 1035.664, 607.244 1047 C 607.202 1071.531, 604.902 1083.523, 592.473 1124 C 583.959 1151.730, 580.339 1166.635, 578.921 1179.803 C 575.715 1209.586, 584.712 1234.994, 601.748 1244.266 C 610.575 1249.071, 618.400 1250.305, 640 1250.300 C 655.756 1250.296, 661.330 1249.907, 669.032 1248.272 C 685.308 1244.817, 694.488 1238.795, 699.173 1228.500 C 701.313 1223.797, 701.470 1221.973, 701.822 1197.753 C 702.236 1169.293, 701.413 1160.017, 697.427 1148.217 C 694.754 1140.305, 683.762 1117.407, 670.634 1092.402 C 661.495 1074.997, 660.480 1070.223, 661.296 1048.500 C 661.952 1031.026, 663.882 1022.877, 670.273 1010.591 C 680.716 990.520, 699.822 979.118, 717.464 982.427 C 725.220 983.882, 732.834 993.949, 744.370 1018 C 763.470 1057.823, 780.997 1112.058, 790.908 1162.006 C 798.198 1198.745, 801.694 1226.423, 806.001 1281.500 C 811.159 1347.469, 815.442 1368.962, 828.692 1395.382 C 838.235 1414.411, 848.976 1428.558, 857.814 1433.737 C 867.133 1439.198, 881.630 1436.680, 893.743 1427.497 C 907.265 1417.246, 913.041 1400.366, 911.714 1374.988 C 910.598 1353.662, 906.644 1343.070, 874.035 1274.067 C 848.972 1221.032, 840.189 1198.986, 822.018 1143.500 C 807.233 1098.354, 803.581 1079.186, 804.237 1050.158 C 804.615 1033.443, 804.940 1030.575, 807.364 1022.614 C 814.472 999.273, 823.229 990.159, 840.222 988.418 C 853.510 987.057, 864.316 993.427, 871.262 1006.715 C 873.212 1010.447, 877.607 1021.600, 881.027 1031.500 C 896.805 1077.171, 906.815 1098.124, 922.665 1118.655 C 934.326 1133.761, 943.479 1140.095, 953.673 1140.115 C 969.353 1140.145, 990.838 1127.489, 993.894 1116.423 C 994.591 1113.899, 994.729 1099.248, 994.310 1072.464 L 993.681 1032.291 996.038 1027.422 C 1003.117 1012.799, 1020.312 1004.648, 1044 1004.688 C 1071.765 1004.735, 1094.048 1016.342, 1112.375 1040.305 C 1128.799 1061.778, 1134.932 1086.470, 1142.978 1163.500 C 1144.644 1179.450, 1146.710 1195.755, 1147.568 1199.732 C 1152.009 1220.315, 1171.905 1233.938, 1197.590 1233.985 C 1208.102 1234.004, 1219.108 1231.197, 1230.502 1225.590 C 1252.049 1214.985, 1258.153 1205.904, 1258.103 1184.526 C 1258.050 1161.839, 1251.927 1138.091, 1240.012 1114.358 C 1228.968 1092.358, 1219.733 1078.234, 1173.091 1012 C 1152.088 982.175, 1146 967.715, 1146 947.654 C 1146 925.139, 1154.423 908.607, 1174.515 891.689 C 1186.917 881.247, 1193.553 879.136, 1208.450 880.893 C 1227.402 883.128, 1249.025 890.411, 1273.438 902.783 C 1304.978 918.766, 1322.635 935.419, 1335.795 961.592 C 1341.721 973.378, 1346.200 987.020, 1354.509 1018.586 C 1365.342 1059.737, 1370.713 1075.513, 1380.582 1095.163 C 1390.191 1114.295, 1399.709 1128.209, 1412.458 1141.762 C 1431.271 1161.761, 1446.483 1170, 1464.592 1170 C 1479.892 1170, 1489.878 1165.242, 1502.235 1152.063 C 1511.214 1142.487, 1516.189 1134.178, 1519.937 1122.500 C 1525.032 1106.620, 1525.500 1100.609, 1525.500 1051 C 1525.500 1000.888, 1525.125 996.214, 1519.430 975.360 C 1509.292 938.233, 1496.488 915.313, 1472.571 891.475 C 1452.074 871.045, 1432.207 857.989, 1409.525 850.042 C 1391.646 843.778, 1362.103 843.427, 1333.409 849.139 C 1318.788 852.050, 1315.840 852.312, 1297 852.376 L 1276.500 852.447 1264.395 848.306 C 1233.017 837.573, 1211.898 822.689, 1203.266 805.223 C 1199.631 797.868, 1199.500 797.237, 1199.500 787.052 C 1199.500 777.337, 1199.735 776.035, 1202.468 770.636 C 1206.628 762.417, 1216.108 752.591, 1232.995 738.994 C 1249.451 725.744, 1258.650 716.402, 1261.764 709.779 C 1268.307 695.859, 1266.556 671.693, 1258.082 658.958 C 1253.521 652.104, 1246.990 646.193, 1227.984 631.715 C 1202.791 612.525, 1197 604.450, 1197 588.512 C 1197 559.678, 1210.864 546.436, 1273.500 515.447 C 1344.245 480.445, 1394.179 467.007, 1453.500 467.007 C 1475.133 467.007, 1486.778 468.001, 1519 472.599 C 1550.728 477.126, 1564.323 477.912, 1570.443 475.575 C 1579.354 472.172, 1588.541 458.021, 1596.134 436 C 1599.281 426.875, 1599.411 425.887, 1599.430 411 C 1599.446 397.806, 1599.123 394.459, 1597.257 388.500 C 1592.302 372.682, 1579.892 357.792, 1565.419 350.299 C 1547.783 341.170, 1531.740 338.530, 1498.500 339.288 C 1474.637 339.832, 1463.767 341.082, 1443 345.667 C 1426.802 349.244, 1403.562 357.070, 1390.559 363.327 C 1359.997 378.034, 1307.564 414.408, 1235.944 470.586 C 1182.212 512.734, 1167.766 519.520, 1132 519.418 C 1118.244 519.379, 1114.170 519.008, 1107.500 517.186 C 1090.093 512.433, 1076.663 502.949, 1070.403 490.989 C 1067.830 486.074, 1067.528 484.506, 1067.515 476 C 1067.502 467.545, 1067.816 465.856, 1070.373 460.649 C 1075.710 449.779, 1087.805 440.110, 1105 432.966 C 1109.125 431.252, 1121.267 426.927, 1131.983 423.354 C 1142.699 419.782, 1155.074 415.048, 1159.483 412.835 C 1177.919 403.580, 1194.974 389.521, 1203.901 376.220 C 1209.661 367.636, 1216.626 352.852, 1218.608 345 C 1221.058 335.294, 1220.078 318.828, 1216.161 303.913 C 1210.571 282.622, 1206.322 276.343, 1194.228 271.502 C 1177.619 264.853, 1162.982 268.104, 1145.634 282.298 C 1142.260 285.058, 1128.025 298.642, 1114 312.483 C 1087.174 338.958, 1083.602 341.913, 1071.438 347.690 C 1058.577 353.798, 1046.427 353.252, 1031.775 345.909 C 1014.614 337.308, 1001.632 324.080, 995.233 308.672 C 993.104 303.546, 992.593 300.452, 992.219 290.411 C 991.243 264.179, 995.155 249.234, 1021.255 179.500 C 1041.687 124.908, 1042.015 123.690, 1041.976 102.566 C 1041.948 87.746, 1041.125 83.143, 1036.935 74.363 C 1028.620 56.940, 1013.901 44.964, 993.872 39.324 C 984.465 36.675, 948.153 36.681, 939.560 39.333 C 924.301 44.042, 911.302 53.759, 902.450 67.075 C 888.074 88.700, 871.979 136.203, 872.008 156.926 C 872.024 169.297, 875.539 182.121, 887.470 213.341 C 890.590 221.503, 894.058 231.804, 895.178 236.231 C 896.983 243.371, 897.073 244.945, 895.969 250.147 C 892.420 266.870, 872.728 285.655, 851.278 292.777 C 845.172 294.805, 841.458 295.369, 834 295.403 C 822.538 295.455, 821.116 294.823, 804.805 282.418 C 798.587 277.690, 791.765 272.928, 789.644 271.836 C 780.560 267.160, 758.302 264.782, 748.095 267.397 C 730.689 271.856, 717.853 283.727, 693.916 317.500 C 674.063 345.511, 672.797 346.419, 653.500 346.467 C 643.841 346.492, 639.039 346.048, 634.816 344.741 C 625.020 341.710, 617.241 334.321, 614.971 325.893 C 614.408 323.800, 613.270 314.981, 612.444 306.294 C 610.347 284.255, 608.384 271.497, 604.877 257.110 C 600.360 238.583, 598.109 233.013, 582.955 202.866 C 575.315 187.668, 567.855 171.693, 566.377 167.366 C 563.387 158.612, 563.248 155.639, 561.128 55 C 560.111 6.719, 559.964 5.708, 553.500 2.539 C 548.589 0.131, 538.926 -0.442, 533.500 1.352" stroke="none" fill="#040404" fill-rule="evenodd"/></svg>