<svg xmlns="http://www.w3.org/2000/svg" width="1920" height="1260" viewBox="0 0 1920 1260" version="1.1"><path d="" stroke="none" fill="#080404" fill-rule="evenodd"/><path d="M 0 402.578 L 0 805.157 19.750 804.514 C 46.919 803.629, 56.003 802.563, 75.509 797.968 C 84.775 795.786, 93.400 794, 94.676 794 C 95.952 794, 104.759 796.320, 114.248 799.156 L 131.500 804.312 168 803.140 C 188.075 802.496, 219.483 801.976, 237.795 801.984 L 271.090 802 287.295 797.905 C 307.166 792.884, 311.113 792.957, 335.500 798.789 C 371.216 807.331, 378.468 807.215, 407.864 797.636 C 419.064 793.986, 429.639 791.003, 431.364 791.006 C 435.788 791.013, 441.083 792.615, 451.814 797.192 L 461.127 801.164 538.314 800.928 C 601.777 800.734, 620.834 801.002, 645.500 802.437 L 675.500 804.182 696.806 798.291 L 718.112 792.401 763.069 798.895 L 808.025 805.390 850.211 800.375 C 882.161 796.578, 893.622 795.558, 897.448 796.172 C 924.463 800.509, 971.283 803.972, 1012.750 804.702 L 1047 805.304 1047 798.031 C 1047 789.430, 1044.976 775.130, 1040.933 755.169 C 1038.155 741.454, 1038 739.370, 1038 715.785 C 1038 691.291, 1037.950 690.684, 1034.927 678.709 C 1033.236 672.013, 1031.825 665.402, 1031.792 664.017 C 1031.758 662.633, 1032.759 652.463, 1034.017 641.418 L 1036.303 621.335 1064.401 615.211 L 1092.500 609.086 1135.500 608.023 C 1159.150 607.439, 1218.100 606.295, 1266.500 605.481 C 1314.900 604.667, 1369.350 603.728, 1387.500 603.393 C 1421.151 602.773, 1447.816 603.735, 1472 606.442 C 1478.875 607.211, 1495.750 608.123, 1509.500 608.468 C 1534.465 609.094, 1534.555 609.105, 1573.088 615.705 L 1611.675 622.316 1613.927 651.908 C 1615.166 668.184, 1616.368 682.109, 1616.598 682.854 C 1616.828 683.598, 1617.576 683.961, 1618.258 683.660 C 1646.979 670.987, 1663.785 667.295, 1697 666.362 L 1716.500 665.815 1725 672.749 C 1757.103 698.941, 1769.689 728.272, 1763.521 762.523 C 1762.052 770.683, 1760.591 774.626, 1754.386 787.164 C 1750.324 795.374, 1747 802.291, 1747 802.535 C 1747 802.779, 1786.150 803.096, 1834 803.239 L 1921 803.500 1921 401.750 L 1921 0 960.500 0 L 0 0 0 402.578 M 0.495 403 C 0.495 624.375, 0.610 714.937, 0.750 604.250 C 0.890 493.562, 0.890 312.437, 0.750 201.750 C 0.610 91.062, 0.495 181.625, 0.495 403 M 1670.445 693.861 C 1661.174 695.903, 1655.653 699.255, 1648.553 707.152 C 1644.047 712.164, 1641.427 717.063, 1629.378 743 C 1626.350 749.517, 1621.575 757.373, 1616.791 763.710 C 1612.551 769.325, 1608.161 775.724, 1607.036 777.929 C 1604.451 782.997, 1602 792.316, 1602 797.080 C 1602 800.739, 1602.001 800.740, 1607.750 801.859 C 1642.951 808.710, 1685.857 802.773, 1710.842 787.596 C 1727.147 777.691, 1733.823 764.847, 1732.782 745.386 C 1731.985 730.491, 1726.470 718.613, 1714.926 706.934 C 1701.949 693.805, 1688.561 689.870, 1670.445 693.861" stroke="none" fill="#040404" fill-rule="evenodd"/></svg>